# xmcd CD database file
#
# Track frame offsets:
#	150
#	14582
#	25041
#	37897
#	49712
#	63739
#	73960
#	86145
#	106410
#	115258
#	126846
#	139559
#	151398
#	161612
#	173013
#	185369
#	197221
#	209838
#	221077
#	235748
#	247362
#	261506
#	274349
#	291534
#	302262
#
# Disc length: 4204 seconds
#
# Revision: 0
# Processed by: cddbd v1.5.2PL0 Copyright (c) Steve Scherf et al.
# Submitted via: CDex 1.70beta2
#
DISCID=87106a19
DTITLE=Various Artist - Electric Blues Vol3 1960-1969 CD1
DYEAR=2011
DGENRE=Blues
TTITLE0=Otis Rush - So Many Roads, So Many Trains
TTITLE1=Buddy Guy - First Time ( Met The Blues
TTITLE2=Jimmy Reed - Big Boss Man
TTITLE3=Freddy King - Hide Away
TTITLE4=Freddy King - Have You Ever Loved A Woman
TTITLE5=Junior Wells - Messing With tThe Kid
TTITLE6=Bobby Bland - I Pity The Fool
TTITLE7=Earl King - Come On (Parts 1 and 2)
TTITLE8=Kid Thomas - Rockin This Joint To-nite
TTITLE9=Elmore James - Shake Your Moneymaker
TTITLE10=Betty James - I'm A Little Mixed Up
TTITLE11=Junior Parker - Driving Wheel
TTITLE12=Willie Perryman - Doctor Feel Good
TTITLE13=John Lee Hoker - Boom Boom
TTITLE14=Boby Parker - Watch Your Step
TTITLE15=Willie Cobbs - You Dont't Love Me
TTITLE16=Ricky Allen - Cut You A-Loose
TTITLE17=Frank Frost - Jelly Roll King
TTITLE18=Bo Diddley - You Can't Judge A Book By Looking At The Cover
TTITLE19=Christine Kittrell - I'm A Woman
TTITLE20=Sonny Boy Williamson - Help Me
TTITLE21=Jesse Fortune - Too Many Cooks
TTITLE22=Little Johnny Taylor - Part Time Love
TTITLE23=Howlin' Wolf - Hidden Charms
TTITLE24=James Davis - Blue Monday
EXTD=YEAR: 2011
EXTT0=
EXTT1=
EXTT2=
EXTT3=
EXTT4=
EXTT5=
EXTT6=
EXTT7=
EXTT8=
EXTT9=
EXTT10=
EXTT11=
EXTT12=
EXTT13=
EXTT14=
EXTT15=
EXTT16=
EXTT17=
EXTT18=
EXTT19=
EXTT20=
EXTT21=
EXTT22=
EXTT23=
EXTT24=
PLAYORDER=
